<svg width="45" height="45" viewBox="0 0 45 45" fill="none" xmlns="http://www.w3.org/2000/svg">
<path d="M42.5 30.8962C39.375 30.8962 36.375 30.4018 33.575 29.4873C32.7 29.2154 31.725 29.4132 31.025 30.0805L25.525 35.5182C18.45 31.959 12.65 26.2494 9.05 19.2545L14.55 13.792C15.25 13.1247 15.45 12.1607 15.175 11.2956C14.25 8.52734 13.75 5.56131 13.75 2.47169C13.75 1.11226 12.625 0 11.25 0H2.5C1.125 0 0 1.11226 0 2.47169C0 25.6809 19.025 44.4905 42.5 44.4905C43.875 44.4905 45 43.3782 45 42.0188V33.3679C45 32.0084 43.875 30.8962 42.5 30.8962ZM22.5 0V24.7169L30 17.3019H45V0H22.5Z" fill="black"/>
</svg>
